<svg width="90" height="23" xmlns="http://www.w3.org/2000/svg">
 <title>TecHub</title>

 <g>
  <title>Layer 1</title>
  <text font-weight="bold" transform="matrix(0.738721 0 0 0.690321 45.9429 10.7505)" stroke="#000" xml:space="preserve" text-anchor="start" font-family="'Stick No Bills'" font-size="24" id="svg_1" y="8.76947" x="-31" stroke-width="0" fill="#1717c6">Tec</text>
  <path id="svg_2" d="m6.795,4.38136" opacity="NaN" stroke="#000" fill="#fff"/>
  <text font-weight="bold" transform="matrix(0.738721 0 0 0.690321 45.9429 10.7505)" stroke="#000" xml:space="preserve" text-anchor="start" font-family="'Stick No Bills'" font-size="24" id="svg_4" y="9.45269" x="7" stroke-width="0" fill="#7f0000">Hub</text>
  <path transform="rotate(-2 12.2618 11.4179)" stroke="#000" id="svg_9" d="m18.73831,11.87587l2.2347,-1.14703c-0.04393,-0.42499 -0.12883,-0.83725 -0.23504,-1.24253l-2.48243,-0.33361c-0.21486,-0.50231 -0.4986,-0.9682 -0.83212,-1.39586l0.94627,-2.25856c-0.31115,-0.29449 -0.64718,-0.56298 -1.00086,-0.81004l-2.10791,1.28425c-0.49431,-0.25227 -1.02688,-0.44387 -1.58594,-0.56693l-0.76177,-2.29028c-0.21604,-0.01583 -0.43203,-0.03256 -0.65235,-0.03256s-0.43569,0.01634 -0.65239,0.03256l-0.75422,2.27c-0.57406,0.11911 -1.11838,0.31294 -1.6254,0.56833l-2.07508,-1.26536c-0.35323,0.24705 -0.68925,0.51555 -1.00037,0.81004l0.92023,2.19618c-0.35866,0.4461 -0.65894,0.93831 -0.88448,1.4688l-2.40407,0.32267c-0.10576,0.40471 -0.19111,0.81653 -0.23459,1.24248l2.15771,1.10791c0.02445,0.58321 0.12408,1.14843 0.30051,1.68069l-1.62766,1.74657c0.18934,0.38112 0.40014,0.75072 0.644,1.09748l2.39636,-0.49926c0.3929,0.41488 0.84055,0.77837 1.33443,1.07897l-0.09083,2.37945c0.39356,0.17226 0.80248,0.31643 1.22388,0.43167l1.51604,-1.89119c0.26899,0.03333 0.54138,0.05577 0.81921,0.05577c0.30098,0 0.59531,-0.02639 0.88491,-0.065l1.52394,1.90168c0.42206,-0.1151 0.83036,-0.25927 1.22388,-0.43154l-0.09258,-2.42218c0.47074,-0.29576 0.89759,-0.64959 1.27391,-1.04908l2.45868,0.51199c0.24386,-0.34671 0.45469,-0.71592 0.64396,-1.09736l-1.68038,-1.80375c0.16142,-0.50416 0.25159,-1.03637 0.27784,-1.58536l0,0zm-3.71424,2.75527l-1.05951,0.66938l-0.65167,-0.97169c-0.33901,0.12655 -0.70399,0.2035 -1.08874,0.2035c-1.68037,0 -3.04215,-1.3221 -3.04215,-2.95261c0,-1.63057 1.36178,-2.95216 3.04215,-2.95216c1.67993,0 3.04221,1.32159 3.04221,2.95216c0,0.81481 -0.34012,1.5514 -0.8899,2.08583l0.64761,0.96559z" stroke-width="0" fill="#9635ff"/>
 </g>
</svg>